<?xml version="1.0" standalone="no"?>
<!DOCTYPE svg PUBLIC "-//W3C//DTD SVG 20010904//EN"
 "http://www.w3.org/TR/2001/REC-SVG-20010904/DTD/svg10.dtd">
<svg version="1.0" xmlns="http://www.w3.org/2000/svg"
 width="2000.000000pt" height="1250.000000pt" viewBox="0 0 2000.000000 1250.000000"
 preserveAspectRatio="xMidYMid meet">

<g transform="translate(0.000000,1250.000000) scale(0.100000,-0.100000)"
fill="#000000" stroke="none">
<path d="M14275 12215 c-22 -8 -52 -15 -67 -15 -15 0 -29 -4 -32 -9 -4 -5 -25
-12 -49 -16 -23 -4 -46 -10 -52 -14 -5 -4 -30 -13 -55 -20 -25 -7 -53 -17 -63
-22 -10 -6 -39 -14 -65 -20 -26 -5 -64 -14 -85 -18 -21 -5 -44 -14 -50 -20 -6
-6 -23 -11 -38 -11 -15 0 -31 -4 -34 -10 -3 -5 -19 -10 -34 -10 -16 0 -42 -7
-57 -15 -16 -8 -39 -15 -51 -15 -12 0 -25 -4 -28 -10 -3 -5 -19 -10 -35 -10
-16 0 -32 -4 -35 -10 -3 -5 -18 -10 -33 -10 -15 0 -36 -7 -46 -15 -11 -8 -32
-15 -47 -15 -15 0 -30 -4 -33 -9 -3 -5 -20 -11 -38 -14 -18 -2 -46 -9 -63 -15
-99 -34 -194 -62 -212 -62 -12 0 -25 -4 -28 -10 -3 -5 -19 -10 -35 -10 -16 0
-50 -12 -75 -27 -58 -36 -72 -73 -54 -145 16 -68 6 -256 -15 -300 -24 -46 -22
-170 2 -191 23 -21 30 -21 84 -3 43 14 153 47 282 86 85 25 80 25 101 -6 16
-24 17 -122 20 -1383 2 -746 6 -1364 10 -1373 4 -10 2 -39 -4 -65 -13 -52 -49
-83 -97 -83 -13 0 -24 -4 -24 -10 0 -5 -17 -12 -37 -15 -21 -4 -51 -11 -68
-15 -144 -40 -180 -52 -217 -71 -10 -5 -27 -9 -38 -9 -11 0 -31 -6 -43 -14
-14 -9 -56 -16 -112 -17 l-90 -3 -6 1759 c-3 968 -7 1761 -7 1763 -5 7 -51 0
-76 -13 -15 -8 -35 -15 -42 -15 -8 0 -14 -4 -14 -10 0 -5 -10 -10 -22 -10 -13
-1 -34 -7 -48 -15 -14 -8 -37 -14 -52 -15 -15 0 -30 -4 -33 -10 -3 -5 -22 -10
-41 -10 -19 0 -34 -4 -34 -9 0 -9 -61 -27 -128 -38 -18 -3 -35 -9 -38 -14 -3
-5 -14 -9 -24 -9 -10 0 -26 -7 -34 -16 -15 -14 -16 -88 -16 -710 1 -655 0
-694 -17 -711 -33 -32 -72 -53 -100 -53 -15 0 -37 -7 -47 -15 -11 -8 -29 -15
-41 -15 -12 0 -25 -4 -30 -9 -6 -5 -49 -12 -97 -16 l-88 -7 -2 703 -3 704 -38
-3 c-22 -2 -64 -14 -94 -28 -31 -13 -66 -24 -79 -24 -12 0 -26 -4 -29 -10 -3
-5 -18 -10 -33 -10 -15 0 -36 -7 -46 -15 -11 -8 -30 -15 -42 -15 -13 0 -26 -4
-29 -10 -3 -5 -21 -10 -38 -10 -18 0 -41 -7 -51 -15 -11 -8 -30 -15 -43 -15
-13 0 -41 -12 -63 -26 l-39 -26 4 -1707 c3 -938 6 -1763 6 -1833 l0 -128 32 0
c18 0 50 7 72 14 45 16 55 13 55 -15 0 -11 7 -30 15 -43 13 -20 15 -270 13
-2177 -3 -2033 -4 -2156 -20 -2182 -12 -18 -18 -46 -18 -87 0 -49 -4 -62 -20
-72 -11 -7 -20 -19 -20 -27 0 -16 -97 -111 -114 -111 -6 0 -33 -12 -61 -25
-37 -18 -66 -25 -112 -25 -102 0 -147 30 -183 120 -51 130 -49 20 -50 3438 l0
3182 -35 0 c-19 0 -43 -4 -53 -9 -52 -26 -96 -41 -122 -41 -16 0 -32 -4 -35
-10 -3 -5 -16 -10 -28 -10 -12 0 -31 -7 -41 -15 -11 -8 -32 -15 -47 -15 -15 0
-31 -4 -34 -10 -3 -5 -22 -10 -41 -10 -34 0 -122 -41 -136 -64 -4 -6 -8 -47
-8 -91 -1 -44 -6 -116 -11 -160 -6 -44 -14 -333 -17 -643 -6 -521 -8 -565 -24
-576 -10 -7 -18 -20 -18 -28 0 -22 -71 -83 -124 -108 -53 -24 -121 -26 -174
-5 -29 12 -43 26 -56 56 -17 37 -18 112 -17 1178 0 1100 1 1140 20 1183 36 85
147 148 260 148 l59 0 6 153 c3 83 9 234 12 335 l6 182 -43 0 c-24 -1 -55 -7
-69 -15 -14 -8 -33 -14 -43 -15 -10 0 -37 -9 -59 -20 -23 -11 -45 -20 -50 -20
-4 0 -31 -11 -60 -25 -28 -14 -58 -25 -65 -25 -7 0 -31 -11 -53 -25 -22 -14
-42 -25 -45 -25 -14 0 -150 -95 -185 -130 -22 -22 -44 -40 -50 -40 -5 0 -10
-4 -10 -9 0 -6 -11 -22 -25 -37 -14 -15 -25 -31 -25 -35 0 -5 -7 -9 -15 -9 -8
0 -15 -7 -15 -15 0 -8 -9 -23 -20 -32 -11 -10 -20 -30 -20 -45 0 -17 -8 -33
-20 -40 -15 -10 -20 -24 -20 -59 0 -33 -6 -51 -20 -64 -15 -13 -20 -31 -20
-66 0 -27 -9 -71 -20 -99 -20 -50 -20 -74 -20 -1394 0 -1330 0 -1343 20 -1361
11 -10 20 -30 20 -44 0 -15 8 -31 20 -39 11 -7 20 -19 20 -26 0 -32 104 -102
200 -135 54 -19 227 -25 333 -12 l95 12 36 -37 c39 -41 44 -59 21 -91 -13 -18
-15 -300 -16 -2291 -1 -2078 0 -2272 15 -2293 10 -15 16 -44 16 -80 0 -41 5
-63 20 -82 13 -16 20 -40 20 -69 0 -26 8 -55 20 -73 14 -21 20 -47 20 -87 0
-47 4 -59 20 -68 12 -6 20 -21 20 -35 0 -14 8 -29 20 -35 11 -6 20 -15 20 -21
0 -17 110 -118 144 -133 170 -75 346 -75 649 -1 150 37 304 88 414 136 24 11
45 19 48 19 12 0 226 107 285 143 129 79 269 207 361 329 94 127 194 348 219
485 4 26 15 73 24 103 9 30 16 75 16 100 0 25 7 80 15 123 13 68 15 328 15
1948 0 1769 1 1869 18 1877 9 5 60 21 112 36 52 15 147 43 210 62 63 20 158
48 210 64 52 16 140 42 195 59 826 251 1127 333 1221 334 50 1 134 -27 134
-44 0 -5 8 -16 19 -26 10 -10 21 -39 25 -65 4 -26 13 -49 21 -52 21 -8 22
-661 1 -691 -7 -11 -17 -48 -21 -83 -4 -40 -12 -65 -21 -69 -8 -3 -14 -14 -14
-25 0 -41 -163 -158 -220 -158 -10 0 -22 -4 -25 -10 -3 -6 -15 -10 -26 -10
-17 0 -149 -39 -204 -60 -45 -18 -125 -40 -143 -40 -11 0 -33 -7 -48 -15 -16
-8 -41 -15 -56 -15 -16 0 -28 -4 -28 -10 0 -5 -15 -10 -33 -10 -19 0 -37 -3
-40 -6 -11 -11 -110 -43 -134 -44 -12 0 -25 -4 -28 -10 -3 -6 -21 -10 -38 -10
-18 0 -41 -7 -51 -15 -11 -8 -32 -15 -47 -15 -15 0 -31 -4 -34 -10 -3 -6 -19
-10 -35 -10 -16 0 -32 -4 -35 -10 -3 -5 -28 -12 -56 -16 -27 -4 -52 -11 -55
-15 -3 -5 -23 -9 -45 -9 -21 0 -39 -4 -39 -10 0 -5 -9 -10 -20 -10 -10 0 -35
-8 -55 -17 l-36 -18 4 -965 c3 -782 7 -972 18 -1000 10 -28 14 -179 17 -762 3
-699 4 -728 22 -738 14 -7 51 0 152 31 73 22 176 54 228 69 153 46 381 115
580 176 102 31 205 62 230 69 352 103 424 128 595 211 159 77 242 135 361 250
175 170 282 378 358 695 25 105 35 301 41 839 5 416 3 528 -9 639 -8 73 -20
138 -25 145 -6 7 -13 32 -17 56 -17 106 -109 251 -193 302 -20 12 -38 25 -41
28 -10 12 -87 29 -156 34 -39 3 -84 13 -100 21 -16 8 -44 15 -61 15 -18 0 -33
4 -33 9 0 5 39 40 88 77 291 227 426 469 499 899 21 122 30 798 13 917 -6 46
-16 112 -20 148 -37 281 -182 509 -360 565 -30 10 -59 22 -64 26 -14 12 -373
11 -381 -1 -3 -5 -28 -12 -56 -16 -27 -4 -52 -11 -55 -15 -3 -5 -21 -9 -40 -9
-19 0 -34 -4 -34 -10 0 -5 -14 -10 -30 -10 -17 0 -42 -7 -56 -16 -19 -13 -38
-15 -86 -10 -34 3 -63 7 -64 9 -8 7 -5 2870 3 2877 8 7 64 25 283 90 58 17
124 38 148 47 l42 15 2 249 c1 137 2 277 3 312 0 71 -9 78 -80 52z m-2371
-2861 c27 -43 28 -49 21 -112 -9 -74 -8 -816 1 -1062 l6 -156 -26 -31 c-28
-33 -77 -63 -105 -63 -9 0 -25 -7 -35 -15 -11 -8 -32 -15 -47 -15 -15 0 -30
-4 -33 -9 -6 -10 -63 -19 -136 -23 l-45 -3 -3 706 c-2 558 1 708 10 716 7 5
65 24 128 43 63 18 140 41 170 51 30 10 57 18 60 18 3 0 18 -20 34 -45z m2127
-4066 c19 -6 40 -18 47 -25 7 -7 18 -13 23 -13 5 0 9 -9 9 -20 0 -10 8 -27 19
-37 14 -14 20 -38 24 -103 3 -47 12 -102 21 -122 23 -53 23 -582 0 -643 -8
-22 -17 -91 -21 -153 -4 -80 -10 -115 -19 -119 -8 -3 -16 -20 -20 -38 -3 -19
-12 -36 -20 -39 -8 -3 -14 -11 -14 -19 0 -7 -11 -23 -25 -35 -14 -12 -25 -26
-25 -31 0 -5 -8 -11 -17 -15 -10 -3 -31 -14 -48 -25 -16 -11 -39 -20 -50 -21
-11 0 -29 -7 -39 -15 -11 -8 -32 -15 -47 -15 -15 0 -31 -4 -34 -10 -3 -5 -19
-10 -34 -10 -15 0 -32 -5 -39 -12 -6 -6 -43 -13 -82 -14 l-70 -3 0 193 c0 106
-3 429 -7 718 -7 594 -16 526 77 553 25 7 83 25 130 39 74 23 155 41 211 45 9
0 31 -4 50 -11z"/>
<path d="M8385 10442 c-16 -1 -39 -7 -50 -11 -11 -5 -36 -16 -57 -25 -20 -9
-42 -16 -49 -16 -15 0 -72 -18 -116 -37 -17 -7 -45 -13 -61 -13 -17 0 -34 -4
-37 -10 -3 -5 -21 -10 -38 -10 -40 0 -110 -24 -115 -39 -2 -6 -10 -11 -18 -11
-10 0 -14 -12 -14 -37 0 -21 0 -824 0 -1785 l0 -1747 -27 -19 c-16 -10 -50
-29 -77 -42 -70 -33 -76 -53 -66 -228 5 -78 9 -1325 9 -2770 1 -2310 -1 -2630
-14 -2656 -19 -37 -19 -49 3 -75 l17 -22 135 41 c74 23 167 50 205 61 75 22
156 46 245 74 30 9 100 30 155 46 55 16 136 40 180 54 44 13 211 62 370 109
160 47 304 90 320 95 17 5 69 21 117 36 47 14 91 32 98 40 9 11 11 127 7 478
-2 255 -7 469 -11 476 -8 12 -186 16 -186 3 0 -9 -90 -42 -114 -42 -9 0 -24
-4 -34 -9 -31 -15 -119 -41 -140 -41 -11 0 -22 -3 -24 -7 -4 -11 -101 -43
-126 -43 -12 0 -24 -4 -27 -10 -3 -5 -24 -10 -46 -10 -21 0 -39 -4 -39 -10 0
-5 -18 -13 -40 -16 -22 -4 -40 -10 -40 -15 0 -5 -13 -9 -28 -9 -15 0 -32 -4
-37 -9 -6 -5 -46 -11 -89 -13 l-79 -3 -3 35 c-1 19 -5 1879 -8 4134 -2 2254
-8 4102 -13 4105 -4 4 -21 5 -38 3z"/>
<path d="M7398 10153 c-20 -2 -42 -11 -48 -19 -7 -8 -23 -14 -36 -14 -12 0
-26 -4 -29 -10 -3 -5 -17 -10 -31 -10 -13 0 -32 -4 -42 -9 -21 -11 -86 -33
-167 -56 -33 -9 -70 -21 -83 -26 -13 -5 -34 -9 -47 -9 -14 0 -25 -4 -25 -10 0
-5 -15 -10 -32 -10 -18 0 -42 -7 -52 -15 -11 -8 -32 -15 -47 -15 -15 0 -31 -4
-34 -10 -3 -5 -22 -10 -41 -10 -19 0 -34 -4 -34 -10 0 -5 -18 -13 -40 -16 -22
-4 -43 -11 -46 -15 -3 -5 -20 -9 -39 -9 -19 0 -37 -4 -40 -10 -3 -5 -18 -10
-33 -10 -15 0 -40 -7 -56 -15 -15 -8 -39 -15 -52 -15 -13 0 -32 -4 -42 -9 -9
-5 -39 -18 -66 -28 -27 -10 -51 -26 -53 -35 -3 -9 -11 -19 -19 -22 -12 -5 -14
-254 -14 -1687 0 -1237 3 -1691 11 -1714 10 -26 9 -39 -6 -73 -11 -23 -25 -42
-32 -42 -7 0 -13 -4 -13 -9 0 -11 -80 -41 -112 -41 -14 0 -39 -7 -54 -15 -16
-8 -37 -15 -46 -15 -9 0 -20 -4 -23 -10 -3 -6 -15 -10 -25 -10 -10 0 -20 -3
-22 -7 -5 -12 -64 -43 -80 -43 -8 0 -37 -11 -64 -25 -27 -14 -55 -25 -62 -25
-12 0 -53 -20 -62 -31 -3 -3 -21 -14 -40 -25 -19 -10 -37 -21 -40 -24 -10 -10
-45 -31 -62 -36 -10 -4 -18 -10 -18 -15 0 -5 -4 -9 -10 -9 -13 0 -110 -70
-110 -80 0 -4 -16 -18 -35 -31 -19 -13 -38 -32 -41 -41 -3 -10 -9 -18 -14 -18
-12 0 -56 -44 -63 -64 -4 -9 -13 -16 -22 -16 -8 0 -15 -8 -15 -18 0 -11 -9
-27 -20 -37 -11 -10 -20 -24 -20 -31 0 -7 -9 -18 -20 -24 -11 -6 -20 -19 -20
-28 0 -10 -9 -25 -20 -35 -11 -9 -20 -26 -20 -37 0 -11 -7 -23 -15 -26 -8 -3
-17 -26 -21 -51 -3 -24 -12 -47 -19 -49 -7 -3 -16 -30 -20 -60 -3 -29 -12 -57
-20 -61 -8 -5 -14 -35 -17 -80 -2 -49 -9 -77 -21 -91 -12 -13 -17 -36 -17 -84
0 -67 -15 -128 -31 -128 -5 0 -9 -754 -9 -1842 0 -1722 1 -1843 17 -1860 13
-14 18 -43 21 -114 3 -52 8 -94 12 -94 14 0 30 -61 30 -110 0 -32 5 -50 14
-53 8 -3 18 -27 22 -54 4 -26 13 -52 19 -58 7 -5 15 -24 18 -42 7 -35 14 -44
100 -133 101 -103 231 -150 415 -150 320 0 813 153 1115 347 314 201 500 467
585 838 52 223 56 286 57 830 l0 510 -39 -2 c-21 -2 -44 -7 -50 -12 -6 -5 -26
-12 -43 -16 -18 -3 -33 -11 -33 -16 0 -5 -15 -9 -34 -9 -19 0 -38 -4 -41 -10
-3 -5 -20 -10 -36 -10 -17 0 -37 -7 -45 -15 -9 -8 -28 -15 -44 -15 -16 0 -32
-4 -35 -10 -3 -5 -18 -10 -33 -10 -15 0 -36 -7 -46 -15 -11 -8 -32 -15 -47
-15 -15 0 -31 -4 -34 -10 -3 -5 -19 -10 -36 -10 -16 0 -37 -4 -47 -9 -29 -16
-119 -41 -146 -41 -14 0 -28 -4 -31 -10 -3 -5 -14 -10 -24 -10 -10 0 -30 -11
-45 -25 -15 -14 -31 -25 -35 -25 -18 0 -21 -37 -10 -132 7 -65 9 -187 5 -361
-9 -362 -13 -411 -37 -433 -10 -9 -19 -30 -19 -46 0 -16 -6 -31 -15 -34 -8 -3
-17 -14 -20 -25 -4 -10 -12 -19 -18 -19 -7 0 -24 -11 -39 -25 -15 -14 -34 -25
-42 -25 -8 0 -16 -3 -18 -7 -9 -21 -83 -43 -144 -43 -101 0 -139 27 -176 126
l-23 59 -3 1615 c-2 1044 1 1642 7 1691 21 158 83 253 199 307 46 21 72 27
132 27 84 0 128 -16 173 -64 l27 -29 10 -271 c5 -148 15 -291 21 -318 12 -55
5 -139 -17 -199 -9 -22 -14 -58 -12 -80 3 -37 5 -39 33 -37 17 1 91 21 165 43
74 23 248 75 385 115 292 87 347 105 359 116 12 11 8 987 -4 1061 -28 172 -40
230 -60 293 -60 186 -140 300 -253 359 -29 15 -67 40 -84 54 l-32 27 -2 790
c-1 435 -1 795 0 801 0 6 29 20 64 32 52 18 418 130 537 164 19 6 37 12 40 15
3 3 6 147 6 320 l2 315 -51 -6 c-28 -4 -58 -11 -68 -17 -10 -5 -29 -9 -43 -9
-14 0 -28 -4 -31 -10 -3 -5 -16 -10 -29 -10 -12 0 -31 -7 -42 -15 -10 -8 -31
-15 -46 -15 -16 0 -28 -4 -28 -10 0 -5 -15 -10 -34 -10 -18 0 -39 -7 -46 -15
-7 -8 -25 -15 -41 -15 -15 0 -31 -4 -34 -10 -3 -5 -39 -10 -79 -10 l-73 0 -7
376 c-5 242 -4 380 2 386 6 6 63 26 129 45 65 18 159 47 208 62 50 16 124 38
165 50 41 12 98 30 125 40 l50 18 5 309 c5 305 4 336 -9 332 -3 -1 -23 -3 -43
-5z"/>
</g>
</svg>
